<svg xmlns:xlink="http://www.w3.org/1999/xlink" xmlns="http://www.w3.org/2000/svg" viewBox="0 0 16 15" height="200" width="200" preserveAspectRatio="xMidYMid meet" class="" version="1.1" x="0px" y="0px" enable-background="new 0 0 16 15"><title>broadcast</title><path fill="#000000" d="M10.5,3L3.1,5.4C2.8,5.5,2.5,5.9,2.5,6.3v1.9c0,0.4,0.3,0.8,0.7,0.9L4,9.4c0,0.1,0,0.3,0,0.4 c0,1.5,1.2,2.9,2.9,2.9c1.1,0,2-0.6,2.5-1.4l1.3,0.5c0.2,0,0.5-0.2,0.5-0.6V3.5C11,3.1,10.8,2.9,10.5,3z M6.6,11.5 c-1,0-1.7-0.8-1.7-1.7l0,0l3.2,1.1C7.7,11.2,7.2,11.5,6.6,11.5z M12.7,2.7h-0.3C12.1,2.7,12,2.9,12,3v8.6c0,0.2,0.2,0.4,0.4,0.4 h0.3c0.2,0,0.4-0.2,0.4-0.4V3C13.2,2.9,12.9,2.7,12.7,2.7z"></path></svg>